{"accessors":[{"bufferView":0,"byteOffset":0,"componentType":5126,"count":678,"max":[0.5,1.4000000000000002,0.476969600708],"min":[-0.49909153458445157,0.9,-0.476969600708],"type":"VEC3"},{"bufferView":0,"byteOffset":8136,"componentType":5126,"count":678,"max":[0.5,0.9,0.476969600708],"min":[-0.49909153458445157,0.4,-0.476969600708],"type":"VEC3"},{"bufferView":0,"byteOffset":16272,"componentType":5126,"count":41,"max":[0.15,1.2,0.476969600708],"min":[0.0,0.6,0.4],"type":"VEC3"},{"bufferView":0,"byteOffset":16764,"componentType":5126,"count":41,"max":[0.0,1.2,0.476969600708],"min":[-0.15,0.6,0.4],"type":"VEC3"},{"bufferView":0,"byteOffset":17256,"componentType":5126,"count":38,"max":[0.14943623996207418,1.2,0.4],"min":[-0.14943623996207418,0.6,0.4],"type":"VEC3"},{"bufferView":0,"byteOffset":17712,"componentType":5126,"count":41,"max":[0.15,1.2,-0.4],"min":[0.0,0.6,-0.476969600708],"type":"VEC3"},{"bufferView":0,"byteOffset":18204,"componentType":5126,"count":41,"max":[0.0,1.2,-0.4],"min":[-0.15,0.6,-0.476969600708],"type":"VEC3"},{"bufferView":0,"byteOffset":18696,"componentType":5126,"count":38,"max":[0.14943623996207418,1.2,-0.4],"min":[-0.14943623996207418,0.6,-0.4],"type":"VEC3"},{"bufferView":1,"byteOffset":0,"componentType":5126,"count":678,"type":"VEC3"},{"bufferView":1,"byteOffset":8136,"componentType":5126,"count":678,"type":"VEC3"},{"bufferView":1,"byteOffset":16272,"componentType":5126,"count":41,"type":"VEC3"},{"bufferView":1,"byteOffset":16764,"componentType":5126,"count":41,"type":"VEC3"},{"bufferView":1,"byteOffset":17256,"componentType":5126,"count":38,"type":"VEC3"},{"bufferView":1,"byteOffset":17712,"componentType":5126,"count":41,"type":"VEC3"},{"bufferView":1,"byteOffset":18204,"componentType":5126,"count":41,"type":"VEC3"},{"bufferView":1,"byteOffset":18696,"componentType":5126,"count":38,"type":"VEC3"},{"bufferView":2,"byteOffset":0,"componentType":5123,"count":3720,"type":"SCALAR"},{"bufferView":2,"byteOffset":7440,"componentType":5123,"count":3720,"type":"SCALAR"},{"bufferView":2,"byteOffset":14880,"componentType":5123,"count":117,"type":"SCALAR"},{"bufferView":2,"byteOffset":15116,"componentType":5123,"count":117,"type":"SCALAR"},{"bufferView":2,"byteOffset":15352,"componentType":5123,"count":108,"type":"SCALAR"},{"bufferView":2,"byteOffset":15568,"componentType":5123,"count":117,"type":"SCALAR"},{"bufferView":2,"byteOffset":15804,"componentType":5123,"count":117,"type":"SCALAR"},{"bufferView":2,"byteOffset":16040,"componentType":5123,"count":108,"type":"SCALAR"}],"asset":{"generator":"Open CASCADE Technology 7.6 [dev.opencascade.org]","version":"2.0"},"bufferViews":[{"buffer":0,"byteLength":19152,"byteOffset":0,"byteStride":12,"target":34962},{"buffer":0,"byteLength":19152,"byteOffset":19152,"byteStride":12,"target":34962},{"buffer":0,"byteLength":16256,"byteOffset":38304,"target":34963}],"buffers":[{"byteLength":54560,"uri":"Body.bin"}],"materials":[{"name":"mat_0","pbrMetallicRoughness":{"baseColorFactor":[1.0,1.0,1.0,1.0]},"doubleSided":true}],"meshes":[{"name":"Body","primitives":[{"attributes":{"NORMAL":8,"POSITION":0},"indices":16,"material":0,"mode":4},{"attributes":{"NORMAL":9,"POSITION":1},"indices":17,"material":0,"mode":4},{"attributes":{"NORMAL":10,"POSITION":2},"indices":18,"material":0,"mode":4},{"attributes":{"NORMAL":11,"POSITION":3},"indices":19,"material":0,"mode":4},{"attributes":{"NORMAL":12,"POSITION":4},"indices":20,"material":0,"mode":4},{"attributes":{"NORMAL":13,"POSITION":5},"indices":21,"material":0,"mode":4},{"attributes":{"NORMAL":14,"POSITION":6},"indices":22,"material":0,"mode":4},{"attributes":{"NORMAL":15,"POSITION":7},"indices":23,"material":0,"mode":4}]}],"nodes":[{"mesh":0,"name":"Body"}],"scene":0,"scenes":[{"nodes":[0]}]}