{"accessors":[{"bufferView":0,"byteOffset":0,"componentType":5126,"count":54,"max":[0.44472135955,0.1,0.4439689613962551],"min":[-0.44472135955,0.1,-0.44396896139625499],"type":"VEC3"},{"bufferView":0,"byteOffset":648,"componentType":5126,"count":52,"max":[0.4,0.0,0.4],"min":[-0.4,0.0,-0.4],"type":"VEC3"},{"bufferView":0,"byteOffset":1272,"componentType":5126,"count":353,"max":[0.47453559925000007,0.033333333333,0.47453559925000007],"min":[-0.47453559925000007,0.0,-0.47453559925000007],"type":"VEC3"},{"bufferView":0,"byteOffset":5508,"componentType":5126,"count":263,"max":[0.48472135955,0.06,0.4845373142549229],"min":[-0.48398531813110276,0.033333333333,-0.4845373142549229],"type":"VEC3"},{"bufferView":0,"byteOffset":8664,"componentType":5126,"count":623,"max":[0.48472135955,0.1,0.4845373142549229],"min":[-0.48398531813110276,0.06,-0.4845373142549229],"type":"VEC3"},{"bufferView":1,"byteOffset":0,"componentType":5126,"count":54,"type":"VEC3"},{"bufferView":1,"byteOffset":648,"componentType":5126,"count":52,"type":"VEC3"},{"bufferView":1,"byteOffset":1272,"componentType":5126,"count":353,"type":"VEC3"},{"bufferView":1,"byteOffset":5508,"componentType":5126,"count":263,"type":"VEC3"},{"bufferView":1,"byteOffset":8664,"componentType":5126,"count":623,"type":"VEC3"},{"bufferView":2,"byteOffset":0,"componentType":5123,"count":156,"type":"SCALAR"},{"bufferView":2,"byteOffset":312,"componentType":5123,"count":150,"type":"SCALAR"},{"bufferView":2,"byteOffset":612,"componentType":5123,"count":1764,"type":"SCALAR"},{"bufferView":2,"byteOffset":4140,"componentType":5123,"count":1215,"type":"SCALAR"},{"bufferView":2,"byteOffset":6572,"componentType":5123,"count":3357,"type":"SCALAR"}],"asset":{"generator":"Open CASCADE Technology 7.6 [dev.opencascade.org]","version":"2.0"},"bufferViews":[{"buffer":0,"byteLength":16140,"byteOffset":0,"byteStride":12,"target":34962},{"buffer":0,"byteLength":16140,"byteOffset":16140,"byteStride":12,"target":34962},{"buffer":0,"byteLength":13288,"byteOffset":32280,"target":34963}],"buffers":[{"byteLength":45568,"uri":"Foot.bin"}],"materials":[{"name":"mat_0","pbrMetallicRoughness":{"baseColorFactor":[0.0,0.0,0.0,1.0]},"doubleSided":true}],"meshes":[{"name":"Foot","primitives":[{"attributes":{"NORMAL":5,"POSITION":0},"indices":10,"material":0,"mode":4},{"attributes":{"NORMAL":6,"POSITION":1},"indices":11,"material":0,"mode":4},{"attributes":{"NORMAL":7,"POSITION":2},"indices":12,"material":0,"mode":4},{"attributes":{"NORMAL":8,"POSITION":3},"indices":13,"material":0,"mode":4},{"attributes":{"NORMAL":9,"POSITION":4},"indices":14,"material":0,"mode":4}]}],"nodes":[{"mesh":0,"name":"Foot"}],"scene":0,"scenes":[{"nodes":[0]}]}