{"accessors":[{"bufferView":0,"byteOffset":0,"componentType":5126,"count":155,"max":[0.5,1.79,0.4997735819115638],"min":[-0.5,1.5,-0.4997735819115638],"type":"VEC3"},{"bufferView":0,"byteOffset":1860,"componentType":5126,"count":41,"max":[0.29,2.0,0.2897871925047349],"min":[-0.2891490823432848,2.0,-0.2897871925047349],"type":"VEC3"},{"bufferView":0,"byteOffset":2352,"componentType":5126,"count":54,"max":[0.5,1.5,0.49915407913563428],"min":[-0.5,1.5,-0.49915407913563417],"type":"VEC3"},{"bufferView":0,"byteOffset":3000,"componentType":5126,"count":60,"max":[0.4472796182478751,1.727541742921,0.25745063168287776],"min":[0.26,1.672458257079,0.20247032403286187],"type":"VEC3"},{"bufferView":0,"byteOffset":3720,"componentType":5126,"count":64,"max":[0.4917063205424837,1.84,0.37],"min":[0.27,1.56,0.09],"type":"VEC3"},{"bufferView":0,"byteOffset":4488,"componentType":5126,"count":53,"max":[0.26,1.8291209865064527,0.3597800605752649],"min":[0.26,1.57,0.10021993942473515],"type":"VEC3"},{"bufferView":0,"byteOffset":5124,"componentType":5126,"count":35,"max":[0.45302688734904558,1.7180041609180324,0.24886826117015549],"min":[0.4336641459300248,1.68194660598,0.21158182928457235],"type":"VEC3"},{"bufferView":0,"byteOffset":5544,"componentType":5126,"count":69,"max":[0.45302688734904558,1.7274652662716366,0.25745063168287776],"min":[0.4187458949487688,1.6724582571430003,0.20247032403286187],"type":"VEC3"},{"bufferView":0,"byteOffset":6372,"componentType":5126,"count":57,"max":[0.27,1.84,0.37],"min":[0.26,1.56,0.09],"type":"VEC3"},{"bufferView":0,"byteOffset":7056,"componentType":5126,"count":1187,"max":[0.5,2.0,0.4997735819115638],"min":[-0.5,1.79,-0.4997735819115638],"type":"VEC3"},{"bufferView":0,"byteOffset":21300,"componentType":5126,"count":58,"max":[0.4472472854682992,1.727541742921,-0.20252976391596953],"min":[0.26,1.672458257053,-0.257533575443392],"type":"VEC3"},{"bufferView":0,"byteOffset":21996,"componentType":5126,"count":65,"max":[0.49182166529318679,1.84,-0.09],"min":[0.27,1.56,-0.37],"type":"VEC3"},{"bufferView":0,"byteOffset":22776,"componentType":5126,"count":53,"max":[0.26,1.8291209865064527,-0.10021993942473515],"min":[0.26,1.57,-0.3597800605752649],"type":"VEC3"},{"bufferView":0,"byteOffset":23412,"componentType":5126,"count":33,"max":[0.45303161232073338,1.718008946185923,-0.2115717114349719],"min":[0.43367449298217516,1.681946611948,-0.24885025749554005],"type":"VEC3"},{"bufferView":0,"byteOffset":23808,"componentType":5126,"count":57,"max":[0.27,1.84,-0.09],"min":[0.26,1.56,-0.37],"type":"VEC3"},{"bufferView":0,"byteOffset":24492,"componentType":5126,"count":65,"max":[0.45303161232073338,1.7274872803203437,-0.20252976391596953],"min":[0.4186904036051329,1.672458257053,-0.257533575443392],"type":"VEC3"},{"bufferView":0,"byteOffset":25272,"componentType":5126,"count":58,"max":[-0.30201010126800006,1.9369185003869678,-0.17001668300903093],"min":[-0.433203841619,1.8020101012674037,-0.2298864422151048],"type":"VEC3"},{"bufferView":0,"byteOffset":25968,"componentType":5126,"count":26,"max":[-0.30201010126800006,1.844436508139,-0.17021873377705838],"min":[-0.34443650813859646,1.8020101012674037,-0.22978126622294163],"type":"VEC3"},{"bufferView":0,"byteOffset":26280,"componentType":5126,"count":59,"max":[-0.30201010126800006,1.9368432485482552,0.22997360355552932],"min":[-0.4331386839885044,1.8020101012674037,0.1700066130796072],"type":"VEC3"},{"bufferView":0,"byteOffset":26988,"componentType":5126,"count":26,"max":[-0.30201010126800006,1.844436508139,0.22978126622294166],"min":[-0.34443650813859646,1.8020101012674037,0.1702187337770584],"type":"VEC3"},{"bufferView":1,"byteOffset":0,"componentType":5126,"count":155,"type":"VEC3"},{"bufferView":1,"byteOffset":1860,"componentType":5126,"count":41,"type":"VEC3"},{"bufferView":1,"byteOffset":2352,"componentType":5126,"count":54,"type":"VEC3"},{"bufferView":1,"byteOffset":3000,"componentType":5126,"count":60,"type":"VEC3"},{"bufferView":1,"byteOffset":3720,"componentType":5126,"count":64,"type":"VEC3"},{"bufferView":1,"byteOffset":4488,"componentType":5126,"count":53,"type":"VEC3"},{"bufferView":1,"byteOffset":5124,"componentType":5126,"count":35,"type":"VEC3"},{"bufferView":1,"byteOffset":5544,"componentType":5126,"count":69,"type":"VEC3"},{"bufferView":1,"byteOffset":6372,"componentType":5126,"count":57,"type":"VEC3"},{"bufferView":1,"byteOffset":7056,"componentType":5126,"count":1187,"type":"VEC3"},{"bufferView":1,"byteOffset":21300,"componentType":5126,"count":58,"type":"VEC3"},{"bufferView":1,"byteOffset":21996,"componentType":5126,"count":65,"type":"VEC3"},{"bufferView":1,"byteOffset":22776,"componentType":5126,"count":53,"type":"VEC3"},{"bufferView":1,"byteOffset":23412,"componentType":5126,"count":33,"type":"VEC3"},{"bufferView":1,"byteOffset":23808,"componentType":5126,"count":57,"type":"VEC3"},{"bufferView":1,"byteOffset":24492,"componentType":5126,"count":65,"type":"VEC3"},{"bufferView":1,"byteOffset":25272,"componentType":5126,"count":58,"type":"VEC3"},{"bufferView":1,"byteOffset":25968,"componentType":5126,"count":26,"type":"VEC3"},{"bufferView":1,"byteOffset":26280,"componentType":5126,"count":59,"type":"VEC3"},{"bufferView":1,"byteOffset":26988,"componentType":5126,"count":26,"type":"VEC3"},{"bufferView":2,"byteOffset":0,"componentType":5123,"count":459,"type":"SCALAR"},{"bufferView":2,"byteOffset":920,"componentType":5123,"count":117,"type":"SCALAR"},{"bufferView":2,"byteOffset":1156,"componentType":5123,"count":156,"type":"SCALAR"},{"bufferView":2,"byteOffset":1468,"componentType":5123,"count":174,"type":"SCALAR"},{"bufferView":2,"byteOffset":1816,"componentType":5123,"count":186,"type":"SCALAR"},{"bufferView":2,"byteOffset":2188,"componentType":5123,"count":159,"type":"SCALAR"},{"bufferView":2,"byteOffset":2508,"componentType":5123,"count":99,"type":"SCALAR"},{"bufferView":2,"byteOffset":2708,"componentType":5123,"count":201,"type":"SCALAR"},{"bufferView":2,"byteOffset":3112,"componentType":5123,"count":165,"type":"SCALAR"},{"bufferView":2,"byteOffset":3444,"componentType":5123,"count":6570,"type":"SCALAR"},{"bufferView":2,"byteOffset":16584,"componentType":5123,"count":168,"type":"SCALAR"},{"bufferView":2,"byteOffset":16920,"componentType":5123,"count":189,"type":"SCALAR"},{"bufferView":2,"byteOffset":17300,"componentType":5123,"count":159,"type":"SCALAR"},{"bufferView":2,"byteOffset":17620,"componentType":5123,"count":93,"type":"SCALAR"},{"bufferView":2,"byteOffset":17808,"componentType":5123,"count":165,"type":"SCALAR"},{"bufferView":2,"byteOffset":18140,"componentType":5123,"count":189,"type":"SCALAR"},{"bufferView":2,"byteOffset":18520,"componentType":5123,"count":168,"type":"SCALAR"},{"bufferView":2,"byteOffset":18856,"componentType":5123,"count":72,"type":"SCALAR"},{"bufferView":2,"byteOffset":19000,"componentType":5123,"count":171,"type":"SCALAR"},{"bufferView":2,"byteOffset":19344,"componentType":5123,"count":72,"type":"SCALAR"}],"asset":{"generator":"Open CASCADE Technology 7.6 [dev.opencascade.org]","version":"2.0"},"bufferViews":[{"buffer":0,"byteLength":27300,"byteOffset":0,"byteStride":12,"target":34962},{"buffer":0,"byteLength":27300,"byteOffset":27300,"byteStride":12,"target":34962},{"buffer":0,"byteLength":19488,"byteOffset":54600,"target":34963}],"buffers":[{"byteLength":74088,"uri":"Head.bin"}],"materials":[{"name":"mat_0","pbrMetallicRoughness":{"baseColorFactor":[0.25015830993652346,0.25015830993652346,0.262250691652298,1.0]},"doubleSided":true},{"name":"mat_1","pbrMetallicRoughness":{"baseColorFactor":[0.04666508734226227,1.0,1.0,1.0]},"doubleSided":true},{"name":"mat_2","pbrMetallicRoughness":{"baseColorFactor":[1.0,0.9911020994186401,0.028426039963960649,1.0]},"doubleSided":true}],"meshes":[{"name":"Head","primitives":[{"attributes":{"NORMAL":20,"POSITION":0},"indices":40,"material":0,"mode":4},{"attributes":{"NORMAL":21,"POSITION":1},"indices":41,"material":0,"mode":4},{"attributes":{"NORMAL":22,"POSITION":2},"indices":42,"material":0,"mode":4},{"attributes":{"NORMAL":23,"POSITION":3},"indices":43,"material":0,"mode":4},{"attributes":{"NORMAL":24,"POSITION":4},"indices":44,"material":1,"mode":4},{"attributes":{"NORMAL":25,"POSITION":5},"indices":45,"material":0,"mode":4},{"attributes":{"NORMAL":26,"POSITION":6},"indices":46,"material":1,"mode":4},{"attributes":{"NORMAL":27,"POSITION":7},"indices":47,"material":0,"mode":4},{"attributes":{"NORMAL":28,"POSITION":8},"indices":48,"material":0,"mode":4},{"attributes":{"NORMAL":29,"POSITION":9},"indices":49,"material":0,"mode":4},{"attributes":{"NORMAL":30,"POSITION":10},"indices":50,"material":0,"mode":4},{"attributes":{"NORMAL":31,"POSITION":11},"indices":51,"material":1,"mode":4},{"attributes":{"NORMAL":32,"POSITION":12},"indices":52,"material":0,"mode":4},{"attributes":{"NORMAL":33,"POSITION":13},"indices":53,"material":1,"mode":4},{"attributes":{"NORMAL":34,"POSITION":14},"indices":54,"material":0,"mode":4},{"attributes":{"NORMAL":35,"POSITION":15},"indices":55,"material":0,"mode":4},{"attributes":{"NORMAL":36,"POSITION":16},"indices":56,"material":2,"mode":4},{"attributes":{"NORMAL":37,"POSITION":17},"indices":57,"material":2,"mode":4},{"attributes":{"NORMAL":38,"POSITION":18},"indices":58,"material":2,"mode":4},{"attributes":{"NORMAL":39,"POSITION":19},"indices":59,"material":2,"mode":4}]}],"nodes":[{"mesh":0,"name":"Head"}],"scene":0,"scenes":[{"nodes":[0]}]}