{"accessors":[{"bufferView":0,"byteOffset":0,"componentType":5126,"count":3,"max":[8.0,3.5,-0.5],"min":[7.3065685424949999,2.51933982822,-1.193431457505],"type":"VEC3"},{"bufferView":0,"byteOffset":36,"componentType":5126,"count":4,"max":[9.5,3.5,-0.5],"min":[8.0,2.51933982822,-2.0],"type":"VEC3"},{"bufferView":0,"byteOffset":84,"componentType":5126,"count":3,"max":[9.5,3.5,-2.0],"min":[8.806568542495,2.51933982822,-2.693431457505],"type":"VEC3"},{"bufferView":0,"byteOffset":120,"componentType":5126,"count":4,"max":[9.5,3.5,-0.5],"min":[7.3065685424949999,3.5,-2.693431457505],"type":"VEC3"},{"bufferView":0,"byteOffset":168,"componentType":5126,"count":4,"max":[9.5,3.5,-0.5],"min":[7.3065685424949999,2.51933982822,-2.693431457505],"type":"VEC3"},{"bufferView":0,"byteOffset":216,"componentType":5126,"count":4,"max":[10.0,4.0,0.0],"min":[0.0,3.5,0.0],"type":"VEC3"},{"bufferView":0,"byteOffset":264,"componentType":5126,"count":4,"max":[10.0,4.0,0.0],"min":[10.0,3.5,-10.5],"type":"VEC3"},{"bufferView":0,"byteOffset":312,"componentType":5126,"count":4,"max":[10.0,4.0,-10.5],"min":[0.0,3.5,-10.5],"type":"VEC3"},{"bufferView":0,"byteOffset":360,"componentType":5126,"count":4,"max":[0.0,4.0,0.0],"min":[0.0,3.5,-10.5],"type":"VEC3"},{"bufferView":0,"byteOffset":408,"componentType":5126,"count":4,"max":[10.0,4.0,0.0],"min":[0.0,4.0,-10.5],"type":"VEC3"},{"bufferView":0,"byteOffset":456,"componentType":5126,"count":4,"max":[10.0,3.5,0.0],"min":[0.0,3.5,-10.5],"type":"VEC3"},{"bufferView":0,"byteOffset":504,"componentType":5126,"count":13,"max":[9.5,0.5,0.0],"min":[0.0,0.5,-10.0],"type":"VEC3"},{"bufferView":0,"byteOffset":660,"componentType":5126,"count":4,"max":[4.0,3.5,-0.5],"min":[0.5,0.5,-0.5],"type":"VEC3"},{"bufferView":0,"byteOffset":708,"componentType":5126,"count":4,"max":[9.5,3.5,-2.0],"min":[9.5,0.5,-10.0],"type":"VEC3"},{"bufferView":0,"byteOffset":756,"componentType":5126,"count":4,"max":[10.0,3.5,0.0],"min":[10.0,0.0,-10.5],"type":"VEC3"},{"bufferView":0,"byteOffset":804,"componentType":5126,"count":4,"max":[10.0,3.5,-10.5],"min":[0.0,0.0,-10.5],"type":"VEC3"},{"bufferView":0,"byteOffset":852,"componentType":5126,"count":8,"max":[0.0,3.5,0.0],"min":[0.0,0.0,-10.5],"type":"VEC3"},{"bufferView":0,"byteOffset":948,"componentType":5126,"count":8,"max":[10.0,3.5,0.0],"min":[0.0,0.0,0.0],"type":"VEC3"},{"bufferView":0,"byteOffset":1044,"componentType":5126,"count":4,"max":[10.0,0.0,0.0],"min":[0.0,0.0,-10.5],"type":"VEC3"},{"bufferView":0,"byteOffset":1092,"componentType":5126,"count":11,"max":[10.0,3.5,0.0],"min":[0.0,3.5,-10.5],"type":"VEC3"},{"bufferView":0,"byteOffset":1224,"componentType":5126,"count":4,"max":[8.0,3.5,-0.5],"min":[6.0,0.5,-0.5],"type":"VEC3"},{"bufferView":0,"byteOffset":1272,"componentType":5126,"count":4,"max":[6.0,3.5,0.0],"min":[6.0,0.5,-0.5],"type":"VEC3"},{"bufferView":0,"byteOffset":1320,"componentType":5126,"count":4,"max":[9.5,3.5,-0.5],"min":[8.0,0.5,-2.0],"type":"VEC3"},{"bufferView":0,"byteOffset":1368,"componentType":5126,"count":4,"max":[4.0,3.5,0.0],"min":[4.0,0.5,-0.5],"type":"VEC3"},{"bufferView":0,"byteOffset":1416,"componentType":5126,"count":6,"max":[4.0,3.5,0.0],"min":[0.0,3.5,-5.0],"type":"VEC3"},{"bufferView":0,"byteOffset":1488,"componentType":5126,"count":4,"max":[0.5,3.5,-0.5],"min":[0.5,0.5,-5.0],"type":"VEC3"},{"bufferView":0,"byteOffset":1536,"componentType":5126,"count":4,"max":[0.5,3.5,-5.0],"min":[0.0,0.5,-5.0],"type":"VEC3"},{"bufferView":0,"byteOffset":1584,"componentType":5126,"count":4,"max":[0.5,3.5,-7.0],"min":[0.0,0.5,-7.0],"type":"VEC3"},{"bufferView":0,"byteOffset":1632,"componentType":5126,"count":4,"max":[0.5,3.5,-7.0],"min":[0.5,0.5,-10.0],"type":"VEC3"},{"bufferView":0,"byteOffset":1680,"componentType":5126,"count":4,"max":[9.5,3.5,-10.0],"min":[0.5,0.5,-10.0],"type":"VEC3"},{"bufferView":1,"byteOffset":0,"componentType":5126,"count":3,"type":"VEC3"},{"bufferView":1,"byteOffset":36,"componentType":5126,"count":4,"type":"VEC3"},{"bufferView":1,"byteOffset":84,"componentType":5126,"count":3,"type":"VEC3"},{"bufferView":1,"byteOffset":120,"componentType":5126,"count":4,"type":"VEC3"},{"bufferView":1,"byteOffset":168,"componentType":5126,"count":4,"type":"VEC3"},{"bufferView":1,"byteOffset":216,"componentType":5126,"count":4,"type":"VEC3"},{"bufferView":1,"byteOffset":264,"componentType":5126,"count":4,"type":"VEC3"},{"bufferView":1,"byteOffset":312,"componentType":5126,"count":4,"type":"VEC3"},{"bufferView":1,"byteOffset":360,"componentType":5126,"count":4,"type":"VEC3"},{"bufferView":1,"byteOffset":408,"componentType":5126,"count":4,"type":"VEC3"},{"bufferView":1,"byteOffset":456,"componentType":5126,"count":4,"type":"VEC3"},{"bufferView":1,"byteOffset":504,"componentType":5126,"count":13,"type":"VEC3"},{"bufferView":1,"byteOffset":660,"componentType":5126,"count":4,"type":"VEC3"},{"bufferView":1,"byteOffset":708,"componentType":5126,"count":4,"type":"VEC3"},{"bufferView":1,"byteOffset":756,"componentType":5126,"count":4,"type":"VEC3"},{"bufferView":1,"byteOffset":804,"componentType":5126,"count":4,"type":"VEC3"},{"bufferView":1,"byteOffset":852,"componentType":5126,"count":8,"type":"VEC3"},{"bufferView":1,"byteOffset":948,"componentType":5126,"count":8,"type":"VEC3"},{"bufferView":1,"byteOffset":1044,"componentType":5126,"count":4,"type":"VEC3"},{"bufferView":1,"byteOffset":1092,"componentType":5126,"count":11,"type":"VEC3"},{"bufferView":1,"byteOffset":1224,"componentType":5126,"count":4,"type":"VEC3"},{"bufferView":1,"byteOffset":1272,"componentType":5126,"count":4,"type":"VEC3"},{"bufferView":1,"byteOffset":1320,"componentType":5126,"count":4,"type":"VEC3"},{"bufferView":1,"byteOffset":1368,"componentType":5126,"count":4,"type":"VEC3"},{"bufferView":1,"byteOffset":1416,"componentType":5126,"count":6,"type":"VEC3"},{"bufferView":1,"byteOffset":1488,"componentType":5126,"count":4,"type":"VEC3"},{"bufferView":1,"byteOffset":1536,"componentType":5126,"count":4,"type":"VEC3"},{"bufferView":1,"byteOffset":1584,"componentType":5126,"count":4,"type":"VEC3"},{"bufferView":1,"byteOffset":1632,"componentType":5126,"count":4,"type":"VEC3"},{"bufferView":1,"byteOffset":1680,"componentType":5126,"count":4,"type":"VEC3"},{"bufferView":2,"byteOffset":0,"componentType":5123,"count":3,"type":"SCALAR"},{"bufferView":2,"byteOffset":8,"componentType":5123,"count":6,"type":"SCALAR"},{"bufferView":2,"byteOffset":20,"componentType":5123,"count":3,"type":"SCALAR"},{"bufferView":2,"byteOffset":28,"componentType":5123,"count":6,"type":"SCALAR"},{"bufferView":2,"byteOffset":40,"componentType":5123,"count":6,"type":"SCALAR"},{"bufferView":2,"byteOffset":52,"componentType":5123,"count":6,"type":"SCALAR"},{"bufferView":2,"byteOffset":64,"componentType":5123,"count":6,"type":"SCALAR"},{"bufferView":2,"byteOffset":76,"componentType":5123,"count":6,"type":"SCALAR"},{"bufferView":2,"byteOffset":88,"componentType":5123,"count":6,"type":"SCALAR"},{"bufferView":2,"byteOffset":100,"componentType":5123,"count":6,"type":"SCALAR"},{"bufferView":2,"byteOffset":112,"componentType":5123,"count":6,"type":"SCALAR"},{"bufferView":2,"byteOffset":124,"componentType":5123,"count":33,"type":"SCALAR"},{"bufferView":2,"byteOffset":192,"componentType":5123,"count":6,"type":"SCALAR"},{"bufferView":2,"byteOffset":204,"componentType":5123,"count":6,"type":"SCALAR"},{"bufferView":2,"byteOffset":216,"componentType":5123,"count":6,"type":"SCALAR"},{"bufferView":2,"byteOffset":228,"componentType":5123,"count":6,"type":"SCALAR"},{"bufferView":2,"byteOffset":240,"componentType":5123,"count":18,"type":"SCALAR"},{"bufferView":2,"byteOffset":276,"componentType":5123,"count":18,"type":"SCALAR"},{"bufferView":2,"byteOffset":312,"componentType":5123,"count":6,"type":"SCALAR"},{"bufferView":2,"byteOffset":324,"componentType":5123,"count":27,"type":"SCALAR"},{"bufferView":2,"byteOffset":380,"componentType":5123,"count":6,"type":"SCALAR"},{"bufferView":2,"byteOffset":392,"componentType":5123,"count":6,"type":"SCALAR"},{"bufferView":2,"byteOffset":404,"componentType":5123,"count":6,"type":"SCALAR"},{"bufferView":2,"byteOffset":416,"componentType":5123,"count":6,"type":"SCALAR"},{"bufferView":2,"byteOffset":428,"componentType":5123,"count":12,"type":"SCALAR"},{"bufferView":2,"byteOffset":452,"componentType":5123,"count":6,"type":"SCALAR"},{"bufferView":2,"byteOffset":464,"componentType":5123,"count":6,"type":"SCALAR"},{"bufferView":2,"byteOffset":476,"componentType":5123,"count":6,"type":"SCALAR"},{"bufferView":2,"byteOffset":488,"componentType":5123,"count":6,"type":"SCALAR"},{"bufferView":2,"byteOffset":500,"componentType":5123,"count":6,"type":"SCALAR"}],"asset":{"generator":"Open CASCADE Technology 7.6 [dev.opencascade.org]","version":"2.0"},"bufferViews":[{"buffer":0,"byteLength":1728,"byteOffset":0,"byteStride":12,"target":34962},{"buffer":0,"byteLength":1728,"byteOffset":1728,"byteStride":12,"target":34962},{"buffer":0,"byteLength":512,"byteOffset":3456,"target":34963}],"buffers":[{"byteLength":3968,"uri":"Godot Test Room 4.bin"}],"materials":[{"name":"mat_0","pbrMetallicRoughness":{"baseColorFactor":[0.20863686501979829,0.20863686501979829,0.23839759826660157,1.0]},"doubleSided":true},{"name":"mat_1","pbrMetallicRoughness":{"baseColorFactor":[0.02955683507025242,0.02955683507025242,0.6307571530342102,1.0]},"doubleSided":true},{"name":"mat_2","pbrMetallicRoughness":{"baseColorFactor":[0.0,0.0,0.0,1.0]},"doubleSided":true},{"name":"mat_3","pbrMetallicRoughness":{"baseColorFactor":[0.6104955673217773,0.6104955673217773,0.6104955673217773,1.0]},"doubleSided":true},{"name":"mat_4","pbrMetallicRoughness":{"baseColorFactor":[1.0,1.0,1.0,1.0]},"doubleSided":true},{"name":"mat_5","pbrMetallicRoughness":{"baseColorFactor":[0.0,1.0,0.6653873324394226,1.0]},"doubleSided":true}],"meshes":[{"name":"root","primitives":[{"attributes":{"NORMAL":30,"POSITION":0},"indices":60,"material":0,"mode":4},{"attributes":{"NORMAL":31,"POSITION":1},"indices":61,"material":0,"mode":4},{"attributes":{"NORMAL":32,"POSITION":2},"indices":62,"material":0,"mode":4},{"attributes":{"NORMAL":33,"POSITION":3},"indices":63,"material":0,"mode":4},{"attributes":{"NORMAL":34,"POSITION":4},"indices":64,"material":1,"mode":4}]},{"name":"root001","primitives":[{"attributes":{"NORMAL":35,"POSITION":5},"indices":65,"material":0,"mode":4},{"attributes":{"NORMAL":36,"POSITION":6},"indices":66,"material":0,"mode":4},{"attributes":{"NORMAL":37,"POSITION":7},"indices":67,"material":0,"mode":4},{"attributes":{"NORMAL":38,"POSITION":8},"indices":68,"material":0,"mode":4},{"attributes":{"NORMAL":39,"POSITION":9},"indices":69,"material":0,"mode":4},{"attributes":{"NORMAL":40,"POSITION":10},"indices":70,"material":2,"mode":4}]},{"name":"root002","primitives":[{"attributes":{"NORMAL":41,"POSITION":11},"indices":71,"material":3,"mode":4},{"attributes":{"NORMAL":42,"POSITION":12},"indices":72,"material":4,"mode":4},{"attributes":{"NORMAL":43,"POSITION":13},"indices":73,"material":4,"mode":4},{"attributes":{"NORMAL":44,"POSITION":14},"indices":74,"material":0,"mode":4},{"attributes":{"NORMAL":45,"POSITION":15},"indices":75,"material":0,"mode":4},{"attributes":{"NORMAL":46,"POSITION":16},"indices":76,"material":0,"mode":4},{"attributes":{"NORMAL":47,"POSITION":17},"indices":77,"material":0,"mode":4},{"attributes":{"NORMAL":48,"POSITION":18},"indices":78,"material":0,"mode":4},{"attributes":{"NORMAL":49,"POSITION":19},"indices":79,"material":0,"mode":4},{"attributes":{"NORMAL":50,"POSITION":20},"indices":80,"material":4,"mode":4},{"attributes":{"NORMAL":51,"POSITION":21},"indices":81,"material":5,"mode":4},{"attributes":{"NORMAL":52,"POSITION":22},"indices":82,"material":4,"mode":4},{"attributes":{"NORMAL":53,"POSITION":23},"indices":83,"material":5,"mode":4},{"attributes":{"NORMAL":54,"POSITION":24},"indices":84,"material":0,"mode":4},{"attributes":{"NORMAL":55,"POSITION":25},"indices":85,"material":4,"mode":4},{"attributes":{"NORMAL":56,"POSITION":26},"indices":86,"material":5,"mode":4},{"attributes":{"NORMAL":57,"POSITION":27},"indices":87,"material":5,"mode":4},{"attributes":{"NORMAL":58,"POSITION":28},"indices":88,"material":4,"mode":4},{"attributes":{"NORMAL":59,"POSITION":29},"indices":89,"material":4,"mode":4}]}],"nodes":[{"children":[1,2,3],"name":"root003"},{"mesh":0,"name":"root"},{"mesh":1,"name":"root001"},{"mesh":2,"name":"root002"}],"scene":0,"scenes":[{"nodes":[0]}]}