g Body_02
v 0.094 0 0.181
v 0.094 0 0.18
v 0.066468 0.066468 0.18
v 0.066468 0.066468 0.181
v 0.066468 -0.066468 0.181
v 0.066468 -0.066468 0.18
v 1.73472e-18 -0.094 0.181
v 1.73472e-18 -0.094 0.18
v -0.066468 -0.066468 0.181
v -0.066468 -0.066468 0.18
v -0.094 0 0.181
v -0.094 0 0.18
v -1.73472e-18 0.094 0.18
v -0.066468 0.066468 0.18
v -1.73472e-18 0.094 0.181
v -0.066468 0.066468 0.181
vn 0.92388 0.382683 -0
vn 0.92388 -0.382683 -0
vn 0.382683 -0.92388 -0
vn -0.382683 -0.92388 0
vn -0.92388 -0.382683 0
vn -0 -0 -1
vn 0 0 1
vn -0.92388 0.382683 -0
vn -0.382683 0.92388 -0
vn 0.382683 0.92388 -0
vt 0.0359722 0
vt 0.0359722 -0.001
vt -0.0359722 -0.001
vt -0.0359722 0
vt 0.0359722 0
vt 0.0359722 -0.001
vt -0.0359722 -0.001
vt -0.0359722 0
vt 0.0359722 0
vt 0.0359722 -0.001
vt -0.0359722 -0.001
vt -0.0359722 0
vt 0.0359722 0
vt 0.0359722 -0.001
vt -0.0359722 -0.001
vt -0.0359722 0
vt 0.0359722 0
vt 0.0359722 -0.001
vt -0.0359722 -0.001
vt -0.0359722 0
vt -0.094 0
vt -1.73472e-18 0.094
vt 0.066468 0.066468
vt 0.066468 -0.066468
vt 1.73472e-18 -0.094
vt -0.066468 0.066468
vt 0.094 0
vt -0.066468 -0.066468
vt 0.094 0
vt -0.066468 -0.066468
vt 1.73472e-18 -0.094
vt -0.094 0
vt 0.066468 0.066468
vt -1.73472e-18 0.094
vt -0.066468 0.066468
vt 0.066468 -0.066468
vt 0.0359722 0
vt 0.0359722 -0.001
vt -0.0359722 -0.001
vt -0.0359722 0
vt 0.0359722 0
vt 0.0359722 -0.001
vt -0.0359722 -0.001
vt -0.0359722 0
vt 0.0359722 0
vt 0.0359722 -0.001
vt -0.0359722 -0.001
vt -0.0359722 0
f 1/1/1 2/2/1 3/3/1
f 3/3/1 4/4/1 1/1/1
f 5/5/2 6/6/2 2/7/2
f 2/7/2 1/8/2 5/5/2
f 7/9/3 8/10/3 6/11/3
f 6/11/3 5/12/3 7/9/3
f 9/13/4 10/14/4 8/15/4
f 8/15/4 7/16/4 9/13/4
f 11/17/5 12/18/5 10/19/5
f 10/19/5 9/20/5 11/17/5
f 12/21/6 13/22/6 3/23/6
f 12/21/6 6/24/6 8/25/6
f 12/21/6 14/26/6 13/22/6
f 12/21/6 2/27/6 6/24/6
f 8/25/6 10/28/6 12/21/6
f 3/23/6 2/27/6 12/21/6
f 1/29/7 9/30/7 7/31/7
f 11/32/7 4/33/7 15/34/7
f 1/29/7 11/32/7 9/30/7
f 11/32/7 1/29/7 4/33/7
f 15/34/7 16/35/7 11/32/7
f 7/31/7 5/36/7 1/29/7
f 16/37/8 14/38/8 12/39/8
f 12/39/8 11/40/8 16/37/8
f 15/41/9 13/42/9 14/43/9
f 14/43/9 16/44/9 15/41/9
f 4/45/10 3/46/10 13/47/10
f 13/47/10 15/48/10 4/45/10
